<svg xmlns="http://www.w3.org/2000/svg" viewBox="0 0 240 240" width="240" height="240">
  <defs>
    <linearGradient id="g" x1="0" x2="1" y1="0" y2="1">
      <stop offset="0%" stop-color="#7c3aed" />
      <stop offset="100%" stop-color="#06b6d4" />
    </linearGradient>
  </defs>
  <rect width="240" height="240" rx="40" fill="url(#g)" />
  <g transform="translate(48 48)">
    <circle cx="72" cy="72" r="44" fill="rgba(255,255,255,0.10)" />
    <ellipse cx="72" cy="72" rx="68" ry="40" fill="none" stroke="rgba(255,255,255,0.14)" stroke-width="4" transform="rotate(-18 72 72)"/>
    <path d="M104 56c-12-16-36-20-56-12-12 4-20 12-24 24" stroke="#fff" stroke-width="5" stroke-linecap="round" stroke-linejoin="round" fill="none" opacity="0.98" transform="translate(-4 4)"/>
    <g transform="translate(108 26) rotate(12)">
      <path d="M0 12 L16 0 L12 20 L28 28 L12 28 L8 44 L0 28 L-16 28 L0 20 L-12 0 Z" fill="#fff" opacity="0.95" />
    </g>
    <circle cx="12" cy="92" r="3" fill="#fff" opacity="0.75" />
    <circle cx="124" cy="126" r="5" fill="#fff" opacity="0.85" />
  </g>
</svg>
